<mxfile host="app.diagrams.net" agent="Mozilla/5.0 (Windows NT 10.0; Win64; x64) AppleWebKit/537.36 (KHTML, like Gecko) Chrome/130.0.0.0 Safari/537.36" version="24.8.0">
  <diagram name="Page-1" id="dwAKbBvZTxenJJB97YeQ">
    <mxGraphModel dx="1418" dy="819" grid="1" gridSize="10" guides="1" tooltips="1" connect="1" arrows="1" fold="1" page="1" pageScale="1" pageWidth="850" pageHeight="1100" math="0" shadow="0">
      <root>
        <mxCell id="0" />
        <mxCell id="1" parent="0" />
        <mxCell id="ShRbZ3fEyVjhTJYoRN1a-18" style="edgeStyle=orthogonalEdgeStyle;rounded=0;orthogonalLoop=1;jettySize=auto;html=1;entryX=0.75;entryY=1;entryDx=0;entryDy=0;exitX=0.5;exitY=0;exitDx=0;exitDy=0;fillColor=#d5e8d4;strokeColor=#82b366;" edge="1" parent="1" source="ShRbZ3fEyVjhTJYoRN1a-1" target="ShRbZ3fEyVjhTJYoRN1a-5">
          <mxGeometry relative="1" as="geometry">
            <Array as="points">
              <mxPoint x="435" y="320" />
              <mxPoint x="285" y="320" />
            </Array>
          </mxGeometry>
        </mxCell>
        <mxCell id="ShRbZ3fEyVjhTJYoRN1a-1" value="&lt;b&gt;&lt;i&gt;Issue #1&lt;/i&gt;&lt;/b&gt;" style="rhombus;whiteSpace=wrap;html=1;fillColor=#ffe6cc;strokeColor=#d79b00;" vertex="1" parent="1">
          <mxGeometry x="395" y="330" width="80" height="80" as="geometry" />
        </mxCell>
        <mxCell id="ShRbZ3fEyVjhTJYoRN1a-23" style="edgeStyle=orthogonalEdgeStyle;rounded=0;orthogonalLoop=1;jettySize=auto;html=1;entryX=1;entryY=0.75;entryDx=0;entryDy=0;fillColor=#d5e8d4;strokeColor=#82b366;" edge="1" parent="1" source="ShRbZ3fEyVjhTJYoRN1a-2" target="ShRbZ3fEyVjhTJYoRN1a-5">
          <mxGeometry relative="1" as="geometry">
            <Array as="points">
              <mxPoint x="555" y="285" />
            </Array>
          </mxGeometry>
        </mxCell>
        <mxCell id="ShRbZ3fEyVjhTJYoRN1a-2" value="&lt;b&gt;&lt;i&gt;Issue #2&lt;/i&gt;&lt;/b&gt;" style="rhombus;whiteSpace=wrap;html=1;fillColor=#ffe6cc;strokeColor=#d79b00;" vertex="1" parent="1">
          <mxGeometry x="515" y="330" width="80" height="80" as="geometry" />
        </mxCell>
        <mxCell id="ShRbZ3fEyVjhTJYoRN1a-9" style="edgeStyle=orthogonalEdgeStyle;rounded=0;orthogonalLoop=1;jettySize=auto;html=1;entryX=0.5;entryY=0;entryDx=0;entryDy=0;" edge="1" parent="1" source="ShRbZ3fEyVjhTJYoRN1a-3" target="ShRbZ3fEyVjhTJYoRN1a-4">
          <mxGeometry relative="1" as="geometry" />
        </mxCell>
        <mxCell id="ShRbZ3fEyVjhTJYoRN1a-3" value="&lt;b&gt;&lt;font style=&quot;font-size: 16px;&quot;&gt;Repository&lt;/font&gt;&lt;/b&gt;" style="rounded=0;whiteSpace=wrap;html=1;fillColor=#e1d5e7;strokeColor=#9673a6;" vertex="1" parent="1">
          <mxGeometry x="435" y="40" width="120" height="60" as="geometry" />
        </mxCell>
        <mxCell id="ShRbZ3fEyVjhTJYoRN1a-10" style="edgeStyle=orthogonalEdgeStyle;rounded=0;orthogonalLoop=1;jettySize=auto;html=1;entryX=0.5;entryY=0;entryDx=0;entryDy=0;fillColor=#d5e8d4;strokeColor=#82b366;" edge="1" parent="1" source="ShRbZ3fEyVjhTJYoRN1a-4" target="ShRbZ3fEyVjhTJYoRN1a-5">
          <mxGeometry relative="1" as="geometry" />
        </mxCell>
        <mxCell id="ShRbZ3fEyVjhTJYoRN1a-11" style="edgeStyle=orthogonalEdgeStyle;rounded=0;orthogonalLoop=1;jettySize=auto;html=1;entryX=0.5;entryY=0;entryDx=0;entryDy=0;fillColor=#dae8fc;strokeColor=#6c8ebf;" edge="1" parent="1" source="ShRbZ3fEyVjhTJYoRN1a-4" target="ShRbZ3fEyVjhTJYoRN1a-6">
          <mxGeometry relative="1" as="geometry" />
        </mxCell>
        <mxCell id="ShRbZ3fEyVjhTJYoRN1a-4" value="&lt;font style=&quot;font-size: 13px;&quot;&gt;&lt;b&gt;Main Branch&lt;/b&gt;&lt;/font&gt;" style="rounded=1;whiteSpace=wrap;html=1;fillColor=#f8cecc;strokeColor=#b85450;" vertex="1" parent="1">
          <mxGeometry x="435" y="150" width="120" height="60" as="geometry" />
        </mxCell>
        <mxCell id="ShRbZ3fEyVjhTJYoRN1a-13" style="edgeStyle=orthogonalEdgeStyle;rounded=0;orthogonalLoop=1;jettySize=auto;html=1;entryX=0.5;entryY=0;entryDx=0;entryDy=0;fillColor=#f5f5f5;strokeColor=#666666;" edge="1" parent="1" source="ShRbZ3fEyVjhTJYoRN1a-5" target="ShRbZ3fEyVjhTJYoRN1a-7">
          <mxGeometry relative="1" as="geometry" />
        </mxCell>
        <mxCell id="ShRbZ3fEyVjhTJYoRN1a-14" style="edgeStyle=orthogonalEdgeStyle;rounded=0;orthogonalLoop=1;jettySize=auto;html=1;fillColor=#f5f5f5;strokeColor=#666666;" edge="1" parent="1" source="ShRbZ3fEyVjhTJYoRN1a-5" target="ShRbZ3fEyVjhTJYoRN1a-8">
          <mxGeometry relative="1" as="geometry" />
        </mxCell>
        <mxCell id="ShRbZ3fEyVjhTJYoRN1a-21" style="edgeStyle=orthogonalEdgeStyle;rounded=0;orthogonalLoop=1;jettySize=auto;html=1;entryX=0.5;entryY=1;entryDx=0;entryDy=0;fillColor=#dae8fc;strokeColor=#6c8ebf;" edge="1" parent="1" source="ShRbZ3fEyVjhTJYoRN1a-5" target="ShRbZ3fEyVjhTJYoRN1a-6">
          <mxGeometry relative="1" as="geometry">
            <mxPoint x="-5" y="670" as="targetPoint" />
            <Array as="points">
              <mxPoint x="55" y="270" />
              <mxPoint x="55" y="630" />
              <mxPoint x="735" y="630" />
            </Array>
          </mxGeometry>
        </mxCell>
        <mxCell id="ShRbZ3fEyVjhTJYoRN1a-5" value="&lt;b&gt;Dev&lt;/b&gt;" style="rounded=1;whiteSpace=wrap;html=1;fillColor=#d5e8d4;strokeColor=#82b366;" vertex="1" parent="1">
          <mxGeometry x="195" y="240" width="120" height="60" as="geometry" />
        </mxCell>
        <mxCell id="ShRbZ3fEyVjhTJYoRN1a-22" style="edgeStyle=orthogonalEdgeStyle;rounded=0;orthogonalLoop=1;jettySize=auto;html=1;entryX=0.5;entryY=1;entryDx=0;entryDy=0;fillColor=#f8cecc;strokeColor=#b85450;" edge="1" parent="1" source="ShRbZ3fEyVjhTJYoRN1a-6" target="ShRbZ3fEyVjhTJYoRN1a-4">
          <mxGeometry relative="1" as="geometry" />
        </mxCell>
        <mxCell id="ShRbZ3fEyVjhTJYoRN1a-6" value="&lt;b&gt;Master&lt;/b&gt;" style="rounded=1;whiteSpace=wrap;html=1;fillColor=#dae8fc;strokeColor=#6c8ebf;" vertex="1" parent="1">
          <mxGeometry x="675" y="240" width="120" height="60" as="geometry" />
        </mxCell>
        <mxCell id="ShRbZ3fEyVjhTJYoRN1a-17" style="edgeStyle=orthogonalEdgeStyle;rounded=0;orthogonalLoop=1;jettySize=auto;html=1;entryX=0.5;entryY=1;entryDx=0;entryDy=0;fillColor=#ffe6cc;strokeColor=#d79b00;" edge="1" parent="1" source="ShRbZ3fEyVjhTJYoRN1a-7" target="ShRbZ3fEyVjhTJYoRN1a-2">
          <mxGeometry relative="1" as="geometry">
            <Array as="points">
              <mxPoint x="175" y="560" />
              <mxPoint x="555" y="560" />
            </Array>
          </mxGeometry>
        </mxCell>
        <mxCell id="ShRbZ3fEyVjhTJYoRN1a-7" value="&lt;b&gt;Branch #2&lt;/b&gt;" style="rounded=1;whiteSpace=wrap;html=1;fillColor=#f5f5f5;fontColor=#333333;strokeColor=#666666;" vertex="1" parent="1">
          <mxGeometry x="115" y="480" width="120" height="60" as="geometry" />
        </mxCell>
        <mxCell id="ShRbZ3fEyVjhTJYoRN1a-16" style="edgeStyle=orthogonalEdgeStyle;rounded=0;orthogonalLoop=1;jettySize=auto;html=1;entryX=0.5;entryY=1;entryDx=0;entryDy=0;fillColor=#ffe6cc;strokeColor=#d79b00;" edge="1" parent="1" source="ShRbZ3fEyVjhTJYoRN1a-8" target="ShRbZ3fEyVjhTJYoRN1a-1">
          <mxGeometry relative="1" as="geometry">
            <Array as="points">
              <mxPoint x="435" y="510" />
            </Array>
          </mxGeometry>
        </mxCell>
        <mxCell id="ShRbZ3fEyVjhTJYoRN1a-8" value="&lt;b&gt;Branch #1&lt;/b&gt;" style="rounded=1;whiteSpace=wrap;html=1;fillColor=#f5f5f5;fontColor=#333333;strokeColor=#666666;" vertex="1" parent="1">
          <mxGeometry x="275" y="480" width="120" height="60" as="geometry" />
        </mxCell>
      </root>
    </mxGraphModel>
  </diagram>
</mxfile>
